# xmcd
#
# Track frame offsets: 
#        150
#        13017
#        26007
#        36392
#        48237
#        58685
#        70527
#        79927
#        89000
#        102225
#        113555
#        125710
#
# Disc length: 1846 seconds
#
# Revision: 0
# Processed by: cddbd v1.5.1PL2 Copyright (c) Steve Scherf et al.
# Submitted via: ExactAudioCopy v0.95b3
#
DISCID=9e07340c
DTITLE=Patsy Cline - Let The Teardrops Fall
DYEAR=1991
DGENRE=Country
TTITLE0=Fingerprints
TTITLE1=Yes, I Understand
TTITLE2=Pick Me Up On You Way Down
TTITLE3=Never No More
TTITLE4=Walking Dream
TTITLE5=Let The Teardrops Fall
TTITLE6=I Love You Honey
TTITLE7=Try Again
TTITLE8=Through The Eyes Of A Child
TTITLE9=Hiding Out
TTITLE10=If I Could Only Stay Asleep
TTITLE11=Just A Closer Walk With Thee
EXTD=
EXTT0=
EXTT1=
EXTT2=
EXTT3=
EXTT4=
EXTT5=
EXTT6=
EXTT7=
EXTT8=
EXTT9=
EXTT10=
EXTT11=
PLAYORDER=
